<?xml version="1.0" ?><!DOCTYPE svg  PUBLIC '-//W3C//DTD SVG 1.1//EN'  'http://www.w3.org/Graphics/SVG/1.1/DTD/svg11.dtd'><svg enable-background="new 0 0 64 64" height="64px" id="Layer_1" version="1.1" viewBox="0 0 64 64" width="64px" xml:space="preserve" xmlns="http://www.w3.org/2000/svg" xmlns:xlink="http://www.w3.org/1999/xlink"><g><path d="M36.16,19.672V1.524c0-0.874-0.708-1.563-1.566-1.563H7.586c-0.859,0-1.562,0.689-1.562,1.563v27.041   c0,8.314,6.752,15.068,15.067,15.068c2.173,0,4.221-0.488,6.085-1.315c0.804-0.499,0.889-1.402,0.893-1.676v-6.249   c0-1.129-0.854-0.542-0.854-0.542l-0.002-0.008c-1.643,1.101-3.775,1.774-6.12,1.774c-4.755,0-8.672-2.734-9.29-6.279   c-0.017-0.263-0.002-1.008,0.783-0.457c0.002,0,0.002,0,0.003,0.001c2.173,1.689,5.178,2.739,8.504,2.739   c2.403,0,4.614-0.576,6.49-1.521c0.169-0.141,0.486-0.497,0.486-1.193v-5.546c0-0.875,0.703-1.563,1.562-1.563h4.991   C35.198,21.744,36.16,21.403,36.16,19.672z M18.346,16.11c-2.142,1.88-4.296,2.19-7.251-0.123   c-0.441-0.483,0.149-1.037,0.149-1.037c1.33-1.053,4.357-2.832,7.128-0.001C18.494,15.134,18.81,15.71,18.346,16.11z    M31.808,15.975c-2.127,1.928-4.242,2.38-7.131,0.229c-0.847-0.602-0.012-1.324,0.027-1.358c1.393-1.066,4.326-2.664,7.015,0.104   v0.001C31.719,14.95,32.209,15.512,31.808,15.975z" fill="#241F20"/><path d="M56.565,24.603H32.172c-0.775,0-1.411,0.621-1.411,1.411V50.43c0,7.511,6.1,13.609,13.609,13.609   c7.521,0,13.606-6.099,13.606-13.609V26.014C57.977,25.224,57.342,24.603,56.565,24.603z M35.564,38.062   c1.223-0.945,3.821-2.382,6.231-0.054c0.155,0.178,0.539,0.72,0.057,1.194c-1.902,1.643-3.815,1.93-6.418-0.065   C35.045,38.692,35.559,38.071,35.564,38.062z M52.098,53.48v0.006c-1.967-1.552-4.699-2.521-7.728-2.521   c-3.02,0-5.746,0.96-7.708,2.501c-0.005,0.003-0.008,0.003-0.011,0.006c-0.655,0.468-0.675-0.243-0.666-0.472   c0.575-3.184,4.101-5.645,8.385-5.645c4.369,0,7.965,2.562,8.422,5.848C52.798,54.116,52.098,53.48,52.098,53.48z M53.879,39.208   c-1.937,1.671-3.884,1.937-6.56-0.186c-0.315-0.384,0.034-0.748,0.161-0.861c1.163-0.939,3.881-2.585,6.387-0.121   C53.882,38.071,54.251,38.861,53.879,39.208z" fill="#241F20"/></g></svg>