<?xml version="1.0" ?><svg enable-background="new 0 0 24 24" id="Layer_1" version="1.1" viewBox="0 0 24 24" xml:space="preserve" xmlns="http://www.w3.org/2000/svg" xmlns:xlink="http://www.w3.org/1999/xlink"><g><g><path d="    M17.71875,3.2009277C16.0725708,2.1287842,14.1110229,1.5,12,1.5C6.2009888,1.5,1.5,6.2009888,1.5,12    c0,3.5741577,1.7893677,6.7266235,4.517395,8.6229858" fill="none" stroke="#303C42" stroke-linecap="round" stroke-linejoin="round" stroke-miterlimit="10"/><path d="    M6.6890869,21.046814C8.2485352,21.9644165,10.0597534,22.5,12,22.5c5.7990112,0,10.5-4.7010498,10.5-10.5    c0-3.3031006-1.5283203-6.2462158-3.9129028-8.1709595" fill="none" stroke="#303C42" stroke-linecap="round" stroke-linejoin="round" stroke-miterlimit="10"/></g><polygon fill="none" points="21.5,0.5    7.5,10.5 12,10.5 5.5,15.5 10.5,15.5 3.5,23.5 16.5,13.5 12.5,13.5 18.5,8.5 14.5,8.5  " stroke="#303C42" stroke-linecap="round" stroke-linejoin="round" stroke-miterlimit="10"/></g><g/><g/><g/><g/><g/><g/><g/><g/><g/><g/><g/><g/><g/><g/><g/></svg>